<svg width="23" height="22" fill="none" xmlns="http://www.w3.org/2000/svg"><path fill-rule="evenodd" clip-rule="evenodd" d="M4 0a4 4 0 00-4 4v14a4 4 0 004 4h15a4 4 0 004-4V4a4 4 0 00-4-4H4zm17 5H2v15h19V5z" fill="#D9C287"/><path d="M8 8a1 1 0 011-1h1a1 1 0 011 1v1a1 1 0 01-1 1H9a1 1 0 01-1-1V8zm4 0a1 1 0 011-1h1a1 1 0 011 1v1a1 1 0 01-1 1h-1a1 1 0 01-1-1V8zm4 0a1 1 0 011-1h1a1 1 0 011 1v1a1 1 0 01-1 1h-1a1 1 0 01-1-1V8zM4 12a1 1 0 011-1h1a1 1 0 011 1v1a1 1 0 01-1 1H5a1 1 0 01-1-1v-1zm4 0a1 1 0 011-1h1a1 1 0 011 1v1a1 1 0 01-1 1H9a1 1 0 01-1-1v-1zm4 0a1 1 0 011-1h1a1 1 0 011 1v1a1 1 0 01-1 1h-1a1 1 0 01-1-1v-1zm4 0a1 1 0 011-1h1a1 1 0 011 1v1a1 1 0 01-1 1h-1a1 1 0 01-1-1v-1zM4 16a1 1 0 011-1h1a1 1 0 011 1v1a1 1 0 01-1 1H5a1 1 0 01-1-1v-1zm4 0a1 1 0 011-1h1a1 1 0 011 1v1a1 1 0 01-1 1H9a1 1 0 01-1-1v-1zm4 0a1 1 0 011-1h1a1 1 0 011 1v1a1 1 0 01-1 1h-1a1 1 0 01-1-1v-1z" fill="#D9C287"/></svg>