<svg width="59" height="40" fill="none" xmlns="http://www.w3.org/2000/svg"><path d="M19.108 6.656c.868 0 1.613-.74 1.613-1.602V1.602C20.72.74 19.976 0 19.108 0c-.869 0-1.613.74-1.613 1.602v3.452c0 .924.744 1.602 1.613 1.602zM8.065 10.293c.31.308.744.493 1.116.493.435 0 .807-.185 1.117-.493.62-.617.62-1.603 0-2.219L7.878 5.67a1.58 1.58 0 00-2.233 0 1.555 1.555 0 000 2.22l2.42 2.403zm-1.427 8.752c0-.863-.745-1.603-1.613-1.603H1.613c-.869 0-1.613.74-1.613 1.603s.744 1.602 1.613 1.602h3.474c.868 0 1.55-.74 1.55-1.602zm1.427 8.752L5.645 30.2a1.555 1.555 0 000 2.22c.31.307.745.492 1.117.492s.806-.185 1.117-.493l2.42-2.404c.62-.616.62-1.602 0-2.218a1.58 1.58 0 00-2.234 0zm20.969-17.011c.435 0 .807-.185 1.117-.493l2.42-2.404c.62-.616.62-1.602 0-2.219a1.58 1.58 0 00-2.234 0l-2.42 2.404a1.555 1.555 0 000 2.219c.31.308.745.493 1.117.493zm24.382 12.881c-.682-4.253-4.405-7.58-8.872-7.58a9.1 9.1 0 00-3.412.677c-2.171-1.849-4.901-2.896-7.755-2.896-1.923 0-3.722.43-5.335 1.232-1.49-3.39-4.902-5.732-8.872-5.732-5.398 0-9.74 4.315-9.74 9.677 0 4.006 2.481 7.396 5.956 8.875a8.705 8.705 0 00-.373 2.588c0 5.24 4.281 9.492 9.554 9.492H50.5c4.715 0 8.5-3.76 8.5-8.444-.063-3.513-2.358-6.718-5.584-7.889zm-40.822-4.622c0-3.575 2.916-6.472 6.514-6.472 2.854 0 5.335 1.85 6.204 4.438-1.303 1.17-2.296 2.65-2.978 4.314-2.296.555-4.28 1.91-5.584 3.76-2.481-.986-4.156-3.329-4.156-6.04zm37.844 17.75H24.505c-3.474 0-6.328-2.835-6.328-6.287 0-3.143 2.358-5.855 5.522-6.224a1.596 1.596 0 001.365-1.11c1.116-3.636 4.467-6.102 8.313-6.102 2.42 0 4.653.987 6.328 2.712.497.555 1.303.678 1.985.308.869-.493 1.924-.8 2.916-.8 3.102 0 5.708 2.526 5.77 5.608 0 .74.558 1.356 1.24 1.54 2.42.494 4.157 2.712 4.157 5.116-.062 2.897-2.42 5.24-5.335 5.24z" fill="#D9C287"/></svg>