<svg width="62" height="40" fill="none" xmlns="http://www.w3.org/2000/svg"><path d="M30.981.005A.711.711 0 0031.016 0a28.825 28.825 0 012.593 5.773c.786 2.465 1.188 5.055 1.119 7.64-.053 2.259-.466 4.504-1.171 6.652a28.066 28.066 0 01-2.329 5.173c.137.262.483.222.72.134.488-.193.867-.572 1.212-.951.686-.806 1.182-1.75 1.596-2.714.372-.875.665-1.781.917-2.697.598-2.014 1.734-3.832 3.041-5.474 1.197-1.492 2.564-2.848 4.035-4.078 1.658-1.379 3.457-2.602 5.386-3.587 1.133-.565 2.315-1.05 3.552-1.348-.072 3.77-.565 7.593-2.035 11.101a19.142 19.142 0 01-2.48 4.297c-1.713 2.242-3.964 4.054-6.454 5.405-.546.283-1.093.645-1.4 1.188-.195.327-.197.753.008 1.077.317.52.888.824 1.447 1.034.952.327 1.982.28 2.975.242 2.993-.138 6.024.246 8.844 1.26 2.106.747 4.076 1.838 5.867 3.155A30.165 30.165 0 0162 36.37c-1.852 1.086-3.803 2.02-5.857 2.675-2.157.69-4.438 1.065-6.71.926a14.82 14.82 0 01-3.593-.67c-1.465-.433-2.895-.978-4.373-1.368-1.135-.294-2.354-.478-3.502-.15-.902.332-1.79.697-2.684 1.05-.743.313-1.514.565-2.313.696-2.039.347-4.193.172-6.102-.636-.808-.32-1.61-.654-2.425-.954-.76-.342-1.622-.378-2.44-.29-1.056.123-2.074.44-3.08.763-1.175.382-2.344.787-3.539 1.112-2.393.634-4.934.6-7.348.095-2.851-.592-5.54-1.787-8.034-3.249 1.457-1.47 3.044-2.827 4.795-3.951a21.905 21.905 0 015.741-2.66c2.44-.727 5.01-.997 7.553-.9.99.04 2.009.098 2.972-.179.588-.192 1.181-.486 1.551-.992.235-.315.29-.754.105-1.104-.293-.583-.869-.963-1.436-1.26-2.69-1.456-5.1-3.46-6.856-5.948-1.24-1.735-2.157-3.68-2.79-5.705-.924-2.958-1.263-6.063-1.322-9.148 1.945.475 3.753 1.376 5.447 2.415a30.575 30.575 0 017.075 6.05c1.59 1.89 2.98 4.02 3.605 6.42.29 1.007.642 1.999 1.097 2.945.478.973 1.048 1.937 1.895 2.646.309.238.677.488 1.091.428.119-.005.181-.11.249-.19-1.063-1.85-1.935-3.813-2.542-5.854a22.811 22.811 0 01-.964-6.75c.02-2.324.418-4.642 1.124-6.86A28.718 28.718 0 0130.981.005z" fill="#D9C287"/></svg>