<svg width="18" height="18" fill="none" xmlns="http://www.w3.org/2000/svg"><path d="M17.96 5.304c.027.723.04 1.955.04 3.696s-.013 2.973-.04 3.696c-.08 1.634-.576 2.907-1.487 3.817-.884.884-2.143 1.353-3.777 1.407-.723.053-1.955.08-3.696.08s-2.973-.027-3.696-.08c-1.634-.08-2.893-.563-3.777-1.447a3.876 3.876 0 01-.844-1.125 6.597 6.597 0 01-.482-1.245c-.08-.402-.12-.87-.12-1.407C.026 11.973 0 10.741 0 9s.027-2.987.08-3.737c.08-1.607.563-2.852 1.447-3.736C2.41.617 3.67.12 5.304.04 6.027.013 7.259 0 9 0s2.973.013 3.696.04c1.634.08 2.893.576 3.777 1.487.91.884 1.407 2.143 1.487 3.777zm-2.322 9c.08-.215.148-.483.201-.804.054-.348.094-.75.12-1.205.028-.482.041-.87.041-1.165V6.871c0-.295-.013-.67-.04-1.125a11.367 11.367 0 00-.12-1.206 4.36 4.36 0 00-.202-.844c-.321-.83-.504-1.013-1.334-1.334a4.355 4.355 0 00-.844-.201 11.368 11.368 0 00-1.206-.12A17.986 17.986 0 0011.13 2H6.87c-.295 0-.684.013-1.166.04a13.06 13.06 0 00-1.205.12 4.36 4.36 0 00-.804.202c-.83.321-1.013.504-1.334 1.334-.08.215-.148.496-.201.844a11.08 11.08 0 00-.12 1.206C2.012 6.2 2 6.576 2 6.87v4.821c.027.402.054.75.08 1.045a10.65 10.65 0 00.282 1.567c.348.83.53 1.013 1.334 1.334.215.08.483.148.804.201.348.054.75.094 1.205.12a20.5 20.5 0 001.125.041h4.3c.295 0 .67-.013 1.126-.04.482-.027.883-.067 1.205-.12a4.33 4.33 0 00.844-.202c.83-.348 1.013-.53 1.334-1.334z" fill="#1C1C1C"/><path fill-rule="evenodd" clip-rule="evenodd" d="M9 12a3 3 0 100-6 3 3 0 000 6zm0 2A5 5 0 109 4a5 5 0 000 10z" fill="#1C1C1C"/><path d="M15 4a1 1 0 11-2 0 1 1 0 012 0z" fill="#1C1C1C"/></svg>