<svg width="18" height="15" fill="none" xmlns="http://www.w3.org/2000/svg"><path d="M16.137 3.813c.023.09.035.24.035.445 0 1.21-.235 2.42-.703 3.63a11.437 11.437 0 01-2.004 3.29c-.844.981-1.945 1.78-3.305 2.397-1.36.617-2.86.925-4.5.925-2.062 0-3.95-.537-5.66-1.61.258.023.55.034.879.034 1.71 0 3.246-.513 4.605-1.541-.82 0-1.546-.229-2.18-.685A3.716 3.716 0 012.04 8.916c.234.023.457.035.668.035.328 0 .656-.035.984-.103a3.63 3.63 0 01-1.511-.685A3.834 3.834 0 011.125 6.93a3.477 3.477 0 01-.387-1.61v-.07a3.542 3.542 0 001.653.48C1.289 5 .738 3.995.738 2.716A3.4 3.4 0 011.266.901a10.183 10.183 0 003.34 2.672 10.56 10.56 0 004.253 1.096 4.867 4.867 0 01-.07-.822c0-.982.352-1.827 1.055-2.535A3.597 3.597 0 0112.445.25c1.078 0 1.98.377 2.707 1.13a7.635 7.635 0 002.356-.856c-.281.845-.82 1.507-1.617 1.987A8.09 8.09 0 0018 1.928a8.001 8.001 0 01-1.863 1.885z" fill="#1C1C1C"/></svg>