<svg width="955" height="924" fill="none" xmlns="http://www.w3.org/2000/svg"><path d="M729.531-399.88l.001.002c87.168 85.026 163.577 182.39 216.457 292.386l.001.002c39.464 81.148 65.34 168.496 80.02 257.412l.24 1.477.69-1.327c92.84-177.907 253.66-319.43 442.45-388.066 10.59 65.265 15.72 131.6 10.39 197.577v.003c-10.07 137.732-54.48 272.074-123.5 391.482l-.68 1.173 1.28-.451c42.62-15.043 86.51-26.719 131.24-33.52l.01-.001c63.61-10.562 128.43-8.854 192.24-1.039l-3.15 8.928c-10.22 28.916-20.45 57.881-34 85.43v.004c-54.84 113.641-144.16 208.873-249.04 278.226-119.47 78.698-262.11 126.132-405.961 121.584l-.015-.001-.015.001c-2.638.076-5.377-.133-8.166-.378l-1.031-.091c-2.448-.218-4.927-.439-7.369-.487-5.57-.111-11.041.672-15.742 4.484-95.232 63.088-207.975 97.003-321.402 105.661-139.097 10.388-281.996-16.201-405.127-82.533l-.004-.002c-48.74-25.683-92.503-59.61-133.539-96.187l.714-.52c26.098-19.003 52.217-38.021 80.33-53.902l.002-.001c67.093-38.229 141.1-64.192 217.188-77.171l1.379-.235-1.215-.692C275.497 541.767 170.906 448.42 93.314 335.864l-.002-.003C54.42 280.25 24.755 218.884.765 155.563c197.83-35.039 407.861 7.237 577.317 114.822l1.274.809-.539-1.409c-43.09-112.671-65.391-233.584-61.6-354.318v-.002c3.968-144.132 41.695-285.194 93.106-419.25l2.08-.557c40.062 33.68 79.845 67.753 117.128 104.462z" stroke="#D9C287"/></svg>