<svg width="146" height="8" fill="none" xmlns="http://www.w3.org/2000/svg"><path d="M73.002 0c1.602 0 9.521.305 15.636 3.786 3.679 2.094 7.187 3.079 10.914 3.05 3.736-.03 7.728-1.08 12.372-3.114 7.564-3.313 14.903-3.503 20.93-2.352 6.014 1.148 10.761 3.64 13.146 5.74l-.717.889c-2.208-1.946-6.764-4.367-12.629-5.487-5.85-1.117-12.966-.932-20.3 2.28-4.722 2.07-8.863 3.173-12.793 3.204-3.94.032-7.632-1.015-11.455-3.19C82.25 1.473 74.256 1.177 73 1.175c-1.256.002-9.25.298-15.106 3.632-3.823 2.175-7.515 3.222-11.454 3.19-3.931-.03-8.072-1.135-12.794-3.203-7.334-3.213-14.45-3.398-20.3-2.28C7.48 3.633 2.925 6.053.716 8L0 7.111C2.385 5.01 7.132 2.518 13.146 1.37 19.173.219 26.512.409 34.076 3.722c4.644 2.034 8.636 3.084 12.372 3.113 3.727.03 7.235-.955 10.914-3.049C63.477.305 71.396 0 72.998 0h.004z" fill="#D9C287"/></svg>