<svg width="66" height="56" fill="none" xmlns="http://www.w3.org/2000/svg"><path d="M32.955 0h.107c1.208 1.724 2.4 3.46 3.468 5.274 2.5 4.2 4.456 8.769 5.365 13.583.688 3.556.784 7.211.429 10.81 5.464-5.939 13.195-9.757 21.252-10.451-.267 2.648-.759 5.282-1.655 7.792-1.825 5.236-4.949 9.983-8.873 13.895 1.813-.14 3.64-.137 5.448.064 2.59.252 5.1.996 7.504 1.966-.775 1.124-1.537 2.263-2.44 3.293-3.314 3.837-7.776 6.602-12.572 8.2-5.46 1.81-11.496 2.168-17.039.497-.417-.099-.846-.392-1.279-.2-4.358 1.458-9.092 1.602-13.589.759-5.511-1.042-10.787-3.558-14.88-7.41C2.568 46.565 1.217 44.787 0 42.936c1.23-.473 2.46-.949 3.738-1.277a26.83 26.83 0 019.242-.736c-3.908-3.853-6.999-8.559-8.842-13.728-.935-2.569-1.448-5.265-1.72-7.976 8.058.69 15.788 4.513 21.257 10.451-.502-4.816-.11-9.735 1.295-14.376C26.625 9.743 29.56 4.663 32.955 0zm-6.27 19.127c-.814 4.055-.812 8.248-.193 12.331.5 3.1 1.231 6.155 1.852 9.23-1.394-2.049-2.716-4.148-4.103-6.203-4.354-6.316-11.286-10.752-18.806-12.254 1.326 6.753 5.083 12.895 10.083 17.58 2.193 2.051 4.687 3.745 6.991 5.665-2.304-.52-4.587-1.132-6.898-1.617-3.796-.73-7.771-.685-11.506.354 3.038 3.718 7.278 6.353 11.818 7.853 5.344 1.754 11.302 1.955 16.62-.006.55-.257 1.1.094 1.627.246 5.162 1.71 10.856 1.428 15.984-.267 4.507-1.505 8.714-4.13 11.733-7.826-2.974-.83-6.109-1.023-9.175-.7-3.152.316-6.168 1.348-9.268 1.94 1.576-1.178 3.106-2.413 4.664-3.617 6.197-4.872 10.918-11.828 12.447-19.608C52.76 23.79 45.6 28.502 41.282 35.185c-1.21 1.786-2.322 3.646-3.591 5.386.558-2.937 1.273-5.845 1.76-8.795.655-4.115.692-8.348-.103-12.445C38.336 13.989 35.958 8.999 33 4.468c-2.931 4.467-5.28 9.393-6.314 14.659z" fill="#D9C287"/><path d="M30.112 17.527c.67-2.343 1.56-4.657 2.902-6.705 2.912 4.782 4.078 10.451 4.09 15.998-.031 5.499-1.194 11.12-4.088 15.86-1.5-2.272-2.438-4.877-3.117-7.5-1.412-5.774-1.354-11.915.213-17.653z" fill="#D9C287"/></svg>