<svg width="73" height="8" fill="none" xmlns="http://www.w3.org/2000/svg"><path d="M4.5 0l1.062 3.056H9L6.219 4.944 7.28 8 4.5 6.111 1.719 8 2.78 4.944 0 3.056h3.438L4.5 0zm16 0l1.062 3.056H25l-2.781 1.888L23.28 8 20.5 6.111 17.719 8l1.062-3.056L16 3.056h3.438L20.5 0zm16 0l1.062 3.056H41l-2.781 1.888L39.28 8 36.5 6.111 33.719 8l1.062-3.056L32 3.056h3.438L36.5 0zm16 0l1.062 3.056H57l-2.781 1.888L55.28 8 52.5 6.111 49.719 8l1.062-3.056L48 3.056h3.438L52.5 0zm16 0l1.062 3.056H73l-2.781 1.888L71.28 8 68.5 6.111 65.719 8l1.062-3.056L64 3.056h3.438L68.5 0z" fill="#D9C287"/></svg>