<svg width="182" height="32" fill="none" xmlns="http://www.w3.org/2000/svg"><path d="M91.003 0C93 0 102.871.387 110.494 4.802c4.586 2.656 8.959 3.905 13.605 3.868 4.657-.038 9.633-1.37 15.423-3.95C148.95.519 158.099.278 165.613 1.738 173.11 3.194 179.026 6.354 182 9.02l-.893 1.127c-2.753-2.468-8.433-5.539-15.743-6.96-7.294-1.416-16.164-1.182-25.307 2.894-5.886 2.623-11.048 4.023-15.947 4.063-4.911.04-9.514-1.288-14.279-4.047C102.531 1.868 92.566 1.493 91 1.49c-1.566.003-11.53.378-18.831 4.607-4.765 2.759-9.368 4.087-14.279 4.047-4.9-.04-10.061-1.44-15.947-4.063C32.8 2.005 23.93 1.77 16.636 3.188c-7.31 1.42-12.99 4.49-15.743 6.959L0 9.02c2.974-2.666 8.89-5.826 16.387-7.283C23.901.277 33.05.518 42.478 4.721c5.79 2.58 10.766 3.91 15.423 3.949 4.646.037 9.019-1.212 13.605-3.868C79.13.387 89 0 90.996 0h.007zm0 10.927c1.997 0 11.868.386 19.491 4.802 4.586 2.655 8.959 3.905 13.605 3.867 4.657-.038 9.633-1.369 15.423-3.949 9.428-4.202 18.577-4.443 26.091-2.983 7.497 1.457 13.413 4.616 16.387 7.282l-.893 1.127c-2.753-2.468-8.433-5.538-15.743-6.959-7.294-1.417-16.164-1.182-25.307 2.893-5.886 2.623-11.048 4.024-15.947 4.063-4.911.04-9.514-1.288-14.279-4.046-7.3-4.23-17.265-4.604-18.831-4.608-1.566.004-11.53.379-18.831 4.608-4.765 2.758-9.368 4.086-14.279 4.046-4.9-.04-10.061-1.44-15.947-4.063-9.143-4.075-18.013-4.31-25.307-2.893-7.31 1.42-12.99 4.491-15.743 6.96L0 19.945c2.974-2.666 8.89-5.825 16.387-7.282 7.514-1.46 16.663-1.22 26.091 2.983 5.79 2.58 10.766 3.911 15.423 3.949 4.646.038 9.019-1.212 13.605-3.867 7.623-4.416 17.494-4.802 19.49-4.802h.007zm0 10.926c1.997 0 11.868.387 19.491 4.802 4.586 2.655 8.959 3.905 13.605 3.867 4.657-.037 9.633-1.368 15.423-3.948 9.428-4.203 18.577-4.444 26.091-2.984 7.497 1.457 13.413 4.617 16.387 7.283L181.107 32c-2.753-2.468-8.433-5.539-15.743-6.96-7.294-1.416-16.164-1.182-25.307 2.893-5.886 2.624-11.048 4.024-15.947 4.064-4.911.04-9.514-1.288-14.279-4.047-7.3-4.229-17.265-4.604-18.831-4.607-1.566.003-11.53.378-18.831 4.607-4.765 2.759-9.368 4.086-14.279 4.047-4.9-.04-10.061-1.44-15.947-4.064-9.143-4.075-18.013-4.31-25.307-2.892C9.326 26.46 3.646 29.53.893 32L0 30.873c2.974-2.666 8.89-5.826 16.387-7.283 7.514-1.46 16.663-1.219 26.091 2.984 5.79 2.58 10.766 3.91 15.423 3.948 4.646.038 9.019-1.211 13.605-3.867C79.13 22.24 89 21.853 90.996 21.853h.007z" fill="#D9C287"/></svg>